<?xml version="1.0" encoding="iso-8859-1"?>
<!-- Uploaded to: SVG Repo, www.svgrepo.com, Generator: SVG Repo Mixer Tools -->
<svg height="800px" width="800px" version="1.1" id="Layer_1" xmlns="http://www.w3.org/2000/svg" xmlns:xlink="http://www.w3.org/1999/xlink" 
	 viewBox="0 0 460.802 460.802" xml:space="preserve">
<g transform="translate(0 -952.36)">
	<g transform="matrix(-0.70711 -0.70711 -0.70711 0.70711 0 0)">
		<path style="fill:#F2EBD9;" d="M-768.852,673.417c0,127.247-103.153,230.4-230.4,230.4s-230.4-103.153-230.4-230.4
			s103.153-230.4,230.4-230.4S-768.852,546.171-768.852,673.417z"/>
		<path style="fill:#27BEC4;" d="M-1040.327,515.425h82.169c19.509,0,35.216,15.706,35.216,35.216v211.293
			c0,19.509-15.706,35.216-35.216,35.216h-82.169c-19.509,0-35.216-15.706-35.216-35.216V550.64
			C-1075.543,531.131-1059.837,515.425-1040.327,515.425z"/>
	</g>
	<path style="fill:#EA612F;" d="M292.251,1228.804l-94.689,94.689c-13.795,13.796-36.046,13.795-49.841,0l-58.103-58.103
		c-13.795-13.795-13.75-36,0.045-49.796l94.689-94.689L292.251,1228.804L292.251,1228.804z"/>
</g>
</svg>