<?xml version="1.0" encoding="iso-8859-1"?>
<!-- Uploaded to: SVG Repo, www.svgrepo.com, Generator: SVG Repo Mixer Tools -->
<svg version="1.1" id="Layer_1" xmlns="http://www.w3.org/2000/svg" xmlns:xlink="http://www.w3.org/1999/xlink" 
	 viewBox="0 0 460 460" xml:space="preserve">
<g id="XMLID_484_">
	<path id="XMLID_486_" style="fill:#FE843F;" d="M230,0C102.974,0,0,102.975,0,230c0,99.01,62.565,183.402,150.314,215.814
		l309.119-231.881C451.182,94.405,351.623,0,230,0z"/>
	<path id="XMLID_487_" style="fill:#FC5A37;" d="M460,230c0-5.403-0.201-10.758-0.567-16.067L342.5,97l-275,266l82.814,82.814
		C175.143,454.985,201.985,460,230,460C357.026,460,460,357.025,460,230z"/>
	<polygon id="XMLID_488_" style="fill:#12B5FF;" points="258.261,173 258.261,288 392.5,173 	"/>
	<polygon id="XMLID_489_" style="fill:#12B5FF;" points="67.5,173 201.739,288 201.739,173 	"/>
	<polygon id="XMLID_490_" style="fill:#FFFFFF;" points="117.5,327 117.5,97 230,97 240,327 	"/>
	<rect id="XMLID_491_" x="230" y="97" style="fill:#E0F8FF;" width="112.5" height="230"/>
	<polygon id="XMLID_493_" style="fill:#7BE3FF;" points="230,288 201.739,268 124.62,305.5 67.5,363 392.5,363 335.38,305.5 
		258.261,268 	"/>
	<polygon id="XMLID_494_" style="fill:#487ED2;" points="220.286,180.588 230,155.09 240,139.265 230,123.44 220.655,123.44 
		180.655,228.44 199.345,235.56 212.667,200.588 230,200.588 240,190.588 230,180.588 	"/>
	<polygon id="XMLID_495_" style="fill:#ADEEFF;" points="67.5,173 67.5,363 201.739,268 	"/>
	<polygon id="XMLID_496_" style="fill:#48D9FF;" points="258.261,268 392.5,363 392.5,173 	"/>
	<polygon id="XMLID_497_" style="fill:#1D54BD;" points="239.345,123.44 230,123.44 230,155.09 239.714,180.588 230,180.588 
		230,200.588 247.333,200.588 260.655,235.56 279.345,228.44 	"/>
</g>
</svg>