<?xml version="1.0" encoding="iso-8859-1"?>
<!-- Uploaded to: SVG Repo, www.svgrepo.com, Generator: SVG Repo Mixer Tools -->
<svg height="800px" width="800px" version="1.1" id="Layer_1" xmlns="http://www.w3.org/2000/svg" xmlns:xlink="http://www.w3.org/1999/xlink" 
	 viewBox="0 0 460.8 460.8" xml:space="preserve">
<g transform="translate(0 -952.36)">
	<path style="fill:#FFCE35;" d="M460.8,1182.76c0,127.246-103.154,230.4-230.4,230.4l0,0c-127.246,0-230.4-103.154-230.4-230.4l0,0
		c0-127.247,103.154-230.4,230.4-230.4l0,0C357.646,952.36,460.8,1055.513,460.8,1182.76L460.8,1182.76z"/>
	<path style="fill:#FF642F;" d="M122.15,1088.83c-8.395,0-15.16,6.765-15.16,15.16v273.03c36.873,23.515,79.677,36.05,123.41,36.14
		c43.71-0.021,86.512-12.476,123.41-35.91v-273.26c0-8.395-6.765-15.16-15.16-15.16H122.15z"/>
	<path style="fill:#F2EBD9;" d="M120.96,1104.26c-1.678,0-3.03,1.352-3.03,3.03v276.44c34.358,19.262,73.081,29.395,112.47,29.43
		c39.408-0.099,78.132-10.304,112.47-29.64v-276.23c0-1.678-1.352-3.03-3.03-3.03H120.96z"/>
	<path style="fill:#24566D;" d="M230.4,1067.48c-10.377,0-19.336,6.508-23.729,15.905h-22.446c-6.409,0-11.672,3.362-11.672,7.568
		v14.494c0,4.206,5.263,7.568,11.672,7.568h92.351c6.409,0,11.672-3.362,11.672-7.568v-14.494c0-4.206-5.263-7.568-11.672-7.568
		h-22.446C249.733,1074.014,240.781,1067.48,230.4,1067.48L230.4,1067.48z M230.4,1075.946c5.824,0,10.938,2.894,14.366,7.439
		h-28.731C219.467,1078.871,224.608,1075.946,230.4,1075.946z"/>
	<g>
		<path style="fill:#27BEC4;" d="M131.924,1120.785h196.953v12.12H131.923L131.924,1120.785z"/>
		<path style="fill:#27BEC4;" d="M131.924,1143.923h196.953v12.12H131.923L131.924,1143.923z"/>
		<path style="fill:#27BEC4;" d="M131.924,1168.164h196.953v12.12H131.923L131.924,1168.164z"/>
		<path style="fill:#27BEC4;" d="M131.924,1191.302h196.953v12.12H131.923L131.924,1191.302z"/>
	</g>
	<g>
		<path style="fill:#6FCDA7;" d="M131.924,1214.441h196.953v12.12H131.923L131.924,1214.441z"/>
		<path style="fill:#6FCDA7;" d="M131.924,1237.579h196.953v12.12H131.923L131.924,1237.579z"/>
		<path style="fill:#6FCDA7;" d="M131.924,1261.82h196.953v12.121H131.923L131.924,1261.82z"/>
		<path style="fill:#6FCDA7;" d="M131.924,1284.958h196.953v12.12H131.923L131.924,1284.958z"/>
	</g>
	<g>
		<path style="fill:#4CB8AE;" d="M131.924,1310.301h196.953v12.12H131.923L131.924,1310.301z"/>
		<path style="fill:#4CB8AE;" d="M131.924,1333.439h196.953v12.12H131.923L131.924,1333.439z"/>
		<path style="fill:#4CB8AE;" d="M131.924,1357.679h196.953v12.12H131.923L131.924,1357.679z"/>
		<path style="fill:#4CB8AE;" d="M131.92,1380.82v9.92c1.509,0.75,3.025,1.483,4.55,2.2h106.46v-12.12H131.92z"/>
	</g>
</g>
</svg>